<mxfile host="app.diagrams.net" modified="2024-03-15T18:50:53.976Z" agent="Mozilla/5.0 (X11; Linux x86_64; rv:109.0) Gecko/20100101 Firefox/114.0" etag="zpeYuGBiNzmqeTlVwHk8" version="23.1.6" type="device">
  <diagram name="PÃ¡gina-1" id="5OlIJx7oiQ4Rz7SOT5CN">
    <mxGraphModel dx="1434" dy="789" grid="1" gridSize="10" guides="1" tooltips="1" connect="1" arrows="1" fold="1" page="1" pageScale="1" pageWidth="827" pageHeight="1169" math="0" shadow="0">
      <root>
        <mxCell id="0" />
        <mxCell id="1" parent="0" />
        <mxCell id="q7n8V_NzYZxk-aA5DZJh-1" value="1" style="ellipse;whiteSpace=wrap;html=1;aspect=fixed;" vertex="1" parent="1">
          <mxGeometry x="360" y="80" width="80" height="80" as="geometry" />
        </mxCell>
        <mxCell id="q7n8V_NzYZxk-aA5DZJh-2" value="2" style="ellipse;whiteSpace=wrap;html=1;aspect=fixed;" vertex="1" parent="1">
          <mxGeometry x="360" y="200" width="80" height="80" as="geometry" />
        </mxCell>
        <mxCell id="q7n8V_NzYZxk-aA5DZJh-3" value="3" style="ellipse;whiteSpace=wrap;html=1;aspect=fixed;" vertex="1" parent="1">
          <mxGeometry x="360" y="320" width="80" height="80" as="geometry" />
        </mxCell>
        <mxCell id="q7n8V_NzYZxk-aA5DZJh-5" value="4" style="ellipse;whiteSpace=wrap;html=1;aspect=fixed;" vertex="1" parent="1">
          <mxGeometry x="360" y="440" width="80" height="80" as="geometry" />
        </mxCell>
        <mxCell id="q7n8V_NzYZxk-aA5DZJh-6" value="5" style="ellipse;whiteSpace=wrap;html=1;aspect=fixed;" vertex="1" parent="1">
          <mxGeometry x="360" y="560" width="80" height="80" as="geometry" />
        </mxCell>
        <mxCell id="q7n8V_NzYZxk-aA5DZJh-7" value="" style="ellipse;whiteSpace=wrap;html=1;aspect=fixed;" vertex="1" parent="1">
          <mxGeometry x="530" y="590" width="80" height="80" as="geometry" />
        </mxCell>
      </root>
    </mxGraphModel>
  </diagram>
</mxfile>
